<?xml version="1.0" encoding="UTF-8" standalone="no" ?>
<!DOCTYPE svg PUBLIC "-//W3C//DTD SVG 1.1//EN" "http://www.w3.org/Graphics/SVG/1.1/DTD/svg11.dtd">
<svg xmlns="http://www.w3.org/2000/svg" xmlns:xlink="http://www.w3.org/1999/xlink" version="1.1" width="1280" height="1024" viewBox="0 0 1280 1024" xml:space="preserve">
<desc>Created with Fabric.js 5.3.0</desc>
<defs>
</defs>
<g transform="matrix(1 0 0 1 640 512)" id="background-logo"  >
<rect style="stroke: none; stroke-width: 0; stroke-dasharray: none; stroke-linecap: butt; stroke-dashoffset: 0; stroke-linejoin: miter; stroke-miterlimit: 4; fill: rgb(255,255,255); fill-opacity: 0; fill-rule: nonzero; opacity: 1;"  paint-order="stroke"  x="-640" y="-512" rx="0" ry="0" width="1280" height="1024" />
</g>
<g transform="matrix(1.9211538461538462 0 0 1.9211538461538462 393.09685477061635 406.6576619202966)" id="logo-logo"  >
<g style=""  paint-order="stroke"   >
		<g transform="matrix(0.9503048945786801 0 0 0.9503048945786798 20.873688815288858 -21.21629556974017)"  >
<path style="stroke: none; stroke-width: 1; stroke-dasharray: none; stroke-linecap: butt; stroke-dashoffset: 0; stroke-linejoin: miter; stroke-miterlimit: 4; fill: rgb(217,217,216); fill-rule: nonzero; opacity: 1;"  paint-order="stroke"  transform=" translate(-319.61524964999995, -398.624237)" d="M 344.4163208 358.813446 L 279.54492189999996 392.1744384 C 279.5542298 402.0724792 280.56506349999995 412.1553039 285.3143616 419.652832 C 287.9183655 423.7636718 291.10958869999996 427.373352 294.7505799 430.32785029999997 C 294.6223145 427.39080809999996 295.1427003 424.31991569999997 296.3984986 421.35501089999997 C 300.4750367 411.7296752 310.73135379999997 406.87100209999994 319.30661019999997 410.502838 C 327.88183599999996 414.1346434 331.52874769999994 424.8816832 327.45217899999994 434.5069579 C 326.8517150999999 435.9247741 326.11413579999993 437.2359618 325.27062989999996 438.435028 C 344.7807923 434.9161376 359.68557739999994 415.9347533 359.68557739999994 393.0431518 C 359.68557739999994 382.3781433 356.45046999999994 372.56137079999996 351.0217895999999 364.7614135 C 349.2218933 362.3566589 346.437439 360.7755737 344.4163208 358.813446 z" stroke-linecap="round" />
</g>
		<g transform="matrix(0.9503048945786801 0 0 0.9503048945786798 15.904990262047761 -30.409816669517966)"  >
<path style="stroke: none; stroke-width: 1; stroke-dasharray: none; stroke-linecap: butt; stroke-dashoffset: 0; stroke-linejoin: miter; stroke-miterlimit: 4; fill: rgb(15,107,72); fill-rule: nonzero; opacity: 1;"  paint-order="stroke"  transform=" translate(-314.38671869999996, -388.9499512499999)" d="M 351.0167236 364.7648926 C 351.0167236 364.7648926 308.3164673 392.6194458 293.6795959 407.7315369 C 288.7481994 412.82305909999997 285.3267211 419.64501959999996 285.3267211 419.64501959999996 C 280.5667113 412.15502939999993 277.7667235 402.98498539999997 277.7567138 393.09497079999994 L 345.5067138 358.2548828999999 C 347.5267334 360.2149658 349.3666992 362.3950195 351.0167236 364.7648926 z" stroke-linecap="round" />
</g>
		<g transform="matrix(0.9503048945786801 0 0 0.9503048945786798 0.720804239355914 -56.00909118411616)"  >
<path style="stroke: none; stroke-width: 1; stroke-dasharray: none; stroke-linecap: butt; stroke-dashoffset: 0; stroke-linejoin: miter; stroke-miterlimit: 4; fill: rgb(0,0,0); fill-rule: nonzero; opacity: 1;"  paint-order="stroke"  transform=" translate(-298.408493070189, -362.0119920111941)" d="M 244.0315857 385.4355469 L 352.4319153 339.6951599 C 353.0647583 339.42813110000003 352.7815552 338.4767456 352.10568240000003 338.5992737 L 266.1592713 354.1836243 C 260.2050477 355.2632752 255.0500031 358.95736700000003 252.1109162 364.2470093 C 248.5471954 370.6608276 245.7945862 377.7818909 244.0315857 385.4355469 z" stroke-linecap="round" />
</g>
		<g transform="matrix(0.9503048945786801 0 0 0.9503048945786798 0 0)"  >
<path style="stroke: none; stroke-width: 1; stroke-dasharray: none; stroke-linecap: butt; stroke-dashoffset: 0; stroke-linejoin: miter; stroke-miterlimit: 4; fill: rgb(0,0,0); fill-rule: nonzero; opacity: 1;"  paint-order="stroke"  transform=" translate(-297.64999519917103, -420.95001443288004)" d="M 318.6481323 454.8118896 C 295.30560299999996 454.8118896 275.402832 438.33752439999995 267.6329345 415.1872558 L 392.7967834 333.7595825 C 393.3883972 333.37469480000004 392.9004516 332.4682617 392.2534179 332.75015260000004 L 240.6504363 398.7949219 L 202.2936859 508.00177 C 201.94036860000003 509.00772090000004 203.3228454 509.6812744 203.8972473 508.78298950000004 L 248.681015 438.7487793 C 259.49938960000003 461.8686523 281.0878906 477.64355470000004 305.9688721 477.64355470000004 C 337.0697022 477.64355470000004 363.0397339 453.00494390000006 369.2410279 420.1695862 C 369.3918763 419.3709412 368.25616460000003 419.0330506 367.9402161 419.7818604 C 359.2030945 440.4890137 340.416626 454.8118896 318.6481323 454.8118896 z" stroke-linecap="round" />
</g>
</g>
</g>
<g transform="matrix(1.9211538461538462 0 0 1.9211538461538462 712.5224157061203 345.47740342029664)" id="text-logo"  >
<g style=""  paint-order="stroke"   >
		<g transform="matrix(1 0 0 1 0 0)" id="text-logo-path-0"  >
<path style="stroke: none; stroke-width: 0; stroke-dasharray: none; stroke-linecap: butt; stroke-dashoffset: 0; stroke-linejoin: miter; stroke-miterlimit: 4; fill: rgb(217,217,216); fill-rule: nonzero; opacity: 1;"  paint-order="stroke"  transform=" translate(-93.915, 18.55)" d="M 1.59 0 L 14.42 0 L 14.42 -9.75 L 23.21 -9.75 L 23.21 -22.37 L 14.42 -22.37 L 14.42 -24.49 L 24.27 -24.49 L 24.27 -37.1 L 1.59 -37.1 Z M 36.99 -11.29 C 36.99 -4.61 42.03 0.42 50.88 0.42 C 59.73 0.42 64.77 -4.61 64.77 -11.29 L 64.77 -25.81 C 64.77 -32.49 59.73 -37.52 50.88 -37.52 C 42.03 -37.52 36.99 -32.49 36.99 -25.81 Z M 49.82 -7.95 L 49.82 -28.3 L 51.94 -28.3 L 51.94 -7.95 Z M 92.43 -19.61 L 105.26 -19.61 L 105.26 -25.81 C 105.26 -32.28 100.01 -37.52 91.37 -37.52 C 82.73 -37.52 77.49 -32.28 77.49 -25.81 L 77.49 -11.29 C 77.49 -4.82 82.73 0.42 91.37 0.42 C 100.01 0.42 105.26 -4.82 105.26 -11.29 L 105.26 -17.49 L 92.43 -17.49 L 92.43 -7.95 L 90.31 -7.95 L 90.31 -28.3 L 92.43 -28.3 Z M 133.45 -37.1 L 133.45 -7.95 L 131.33 -7.95 L 131.33 -37.1 L 118.51 -37.1 L 118.51 -11.29 C 118.51 -4.08 123.01 0.42 132.39 0.42 C 141.77 0.42 146.28 -4.08 146.28 -11.29 L 146.28 -37.1 Z M 173.95 -9.65 L 173.95 -7.95 L 171.83 -7.95 L 171.83 -12.4 L 159.53 -12.4 L 159.53 -8.64 C 159.53 -3.76 163.4 0.42 172.89 0.42 C 182.37 0.42 186.24 -4.29 186.24 -9.75 L 186.24 -12.72 C 186.24 -17.22 184.23 -19.93 179.88 -21.2 C 172.3 -23.37 171.83 -23.69 171.83 -26.18 L 171.83 -29.89 L 173.95 -29.89 L 173.95 -24.17 L 186.24 -24.17 L 186.24 -26.98 C 186.24 -33.02 182.69 -37.52 172.89 -37.52 C 163.08 -37.52 159.53 -32.28 159.53 -25.81 L 159.53 -24.43 C 159.53 -19.56 161.81 -16.48 166.95 -15.16 C 174.21 -13.3 173.95 -13.46 173.95 -9.65 Z" stroke-linecap="round" />
</g>
</g>
</g>
<g transform="matrix(1.9211538461538462 0 0 1.9211538461538462 851.5350043692761 423.0263976054939)" id="tagline-41c6914a-7524-4b31-916e-a1730e8a0a45-logo"  >
<g style=""  paint-order="stroke"   >
		<g transform="matrix(1 0 0 1 5.684342e-14 0)" id="tagline-41c6914a-7524-4b31-916e-a1730e8a0a45-logo-path-0"  >
<path style="stroke: none; stroke-width: 0; stroke-dasharray: none; stroke-linecap: butt; stroke-dashoffset: 0; stroke-linejoin: miter; stroke-miterlimit: 4; fill: rgb(0,0,0); fill-rule: nonzero; opacity: 1;"  paint-order="stroke"  transform=" translate(-159.975, 9.045)" d="M 1.35 0 L 14.31 0 L 14.31 -1.89 L 3.51 -1.89 L 3.51 -18.09 L 1.35 -18.09 Z M 31.27 0.3 C 34.72 0.3 37.77 -1.54 39.42 -4.4 C 40.26 -5.83 40.66 -7.37 40.66 -9.04 C 40.66 -12.39 38.88 -15.42 35.99 -17.12 C 34.56 -17.95 32.97 -18.39 31.27 -18.39 C 27.81 -18.39 24.76 -16.58 23.11 -13.72 C 22.27 -12.29 21.87 -10.72 21.87 -9.04 C 21.87 -5.7 23.65 -2.67 26.54 -0.97 C 27.97 -0.14 29.56 0.3 31.27 0.3 Z M 31.27 -1.75 C 28.65 -1.75 26.3 -3.13 25 -5.37 C 24.35 -6.48 24.03 -7.72 24.03 -9.04 C 24.03 -11.72 25.41 -14.07 27.65 -15.39 C 28.75 -16.04 29.97 -16.36 31.27 -16.36 C 33.88 -16.36 36.23 -14.96 37.53 -12.72 C 38.18 -11.61 38.5 -10.37 38.5 -9.04 C 38.5 -6.37 37.13 -4.02 34.88 -2.73 C 33.78 -2.08 32.56 -1.75 31.27 -1.75 Z M 56.86 0 L 56.86 -16.2 L 63.34 -16.2 L 63.34 -18.09 L 48.22 -18.09 L 48.22 -16.2 L 54.7 -16.2 L 54.7 0 Z M 79.54 0 L 79.54 -16.2 L 86.02 -16.2 L 86.02 -18.09 L 70.9 -18.09 L 70.9 -16.2 L 77.38 -16.2 L 77.38 0 Z M 93.58 0 L 106.54 0 L 106.54 -1.89 L 95.74 -1.89 L 95.74 -8.1 L 104.92 -8.1 L 104.92 -9.99 L 95.74 -9.99 L 95.74 -16.2 L 106.54 -16.2 L 106.54 -18.09 L 93.58 -18.09 Z M 116.26 0 L 116.26 -7.53 L 121.47 -7.53 L 126.2 0 L 128.74 0 L 123.98 -7.61 C 126.6 -8.05 128.55 -10.18 128.55 -12.85 C 128.55 -15.79 126.09 -18.09 123.01 -18.09 L 114.1 -18.09 L 114.1 0 Z M 116.26 -9.42 L 116.26 -16.2 L 122.88 -16.2 C 125.06 -16.2 126.52 -14.88 126.52 -12.85 C 126.52 -10.8 125.15 -9.45 123.01 -9.4 Z M 144.02 -6.97 L 144.23 -7.29 L 151.23 -18.09 L 148.64 -18.09 L 142.94 -9.29 L 137.27 -18.09 L 134.68 -18.09 L 141.64 -7.29 L 141.86 -6.97 L 141.86 0 L 144.02 0 Z M 171.21 0 L 171.21 -18.09 L 169.05 -18.09 L 169.05 0 Z M 180.95 0 L 180.95 -15.01 L 191.59 0 L 193.91 0 L 193.91 -18.09 L 191.75 -18.09 L 191.75 -3.05 L 181.09 -18.09 L 178.77 -18.09 L 178.79 -18.06 L 178.79 0 Z M 203.53 -5.62 L 201.47 -4.86 C 202.74 -1.43 205.2 0.27 208.87 0.27 C 212.79 0.27 215.54 -1.97 215.54 -5 C 215.54 -7.16 214.22 -8.4 212.54 -9.02 C 211.71 -9.31 210.6 -9.64 209.22 -9.96 C 206.87 -10.5 205.77 -10.83 204.9 -11.69 C 204.44 -12.1 204.23 -12.66 204.23 -13.34 C 204.23 -15.2 206.09 -16.47 208.47 -16.47 C 210.92 -16.47 212.22 -15.44 213.27 -12.82 L 215.27 -13.63 C 214 -16.79 211.82 -18.36 208.47 -18.36 C 204.9 -18.36 202.07 -16.25 202.07 -13.34 C 202.07 -11.04 203.5 -9.69 205.23 -9.04 C 206.09 -8.69 207.23 -8.37 208.66 -8.02 C 210.84 -7.48 211.92 -7.21 212.76 -6.45 C 213.17 -6.08 213.38 -5.59 213.38 -5 C 213.38 -2.97 211.65 -1.62 208.87 -1.62 C 205.93 -1.62 204.47 -3 203.53 -5.62 Z M 225.26 0 L 225.26 -18.09 L 223.1 -18.09 L 223.1 0 Z M 251.61 -9.58 L 242.7 -9.58 L 242.7 -7.7 L 249.21 -7.7 C 248.72 -5.75 247.51 -4 245.84 -2.86 C 244.73 -2.13 243.51 -1.75 242.22 -1.75 C 239.6 -1.75 237.25 -3.13 235.95 -5.37 C 235.31 -6.48 234.98 -7.72 234.98 -9.04 C 234.98 -11.72 236.36 -14.07 238.6 -15.39 C 239.71 -16.04 240.92 -16.36 242.22 -16.36 C 244.81 -16.36 247.1 -15.01 248.4 -12.85 L 250.24 -13.9 C 248.54 -16.63 245.57 -18.39 242.22 -18.39 C 238.76 -18.39 235.71 -16.58 234.06 -13.72 C 233.23 -12.29 232.82 -10.72 232.82 -9.04 C 232.82 -5.7 234.6 -2.67 237.49 -0.97 C 238.92 -0.14 240.52 0.3 242.22 0.3 C 245.19 0.3 247.78 -1.22 249.45 -3.62 L 249.45 0 L 251.61 0 Z M 261.33 0 L 261.33 -8.1 L 272.13 -8.1 L 272.13 0 L 274.29 0 L 274.29 -18.09 L 272.13 -18.09 L 272.13 -9.99 L 261.33 -9.99 L 261.33 -18.09 L 259.17 -18.09 L 259.17 0 Z M 290.49 0 L 290.49 -16.2 L 296.97 -16.2 L 296.97 -18.09 L 281.85 -18.09 L 281.85 -16.2 L 288.33 -16.2 L 288.33 0 Z M 306.59 -5.62 L 304.53 -4.86 C 305.8 -1.43 308.26 0.27 311.93 0.27 C 315.85 0.27 318.6 -1.97 318.6 -5 C 318.6 -7.16 317.28 -8.4 315.6 -9.02 C 314.77 -9.31 313.66 -9.64 312.28 -9.96 C 309.93 -10.5 308.83 -10.83 307.96 -11.69 C 307.5 -12.1 307.29 -12.66 307.29 -13.34 C 307.29 -15.2 309.15 -16.47 311.53 -16.47 C 313.98 -16.47 315.28 -15.44 316.33 -12.82 L 318.33 -13.63 C 317.06 -16.79 314.87 -18.36 311.53 -18.36 C 307.96 -18.36 305.13 -16.25 305.13 -13.34 C 305.13 -11.04 306.56 -9.69 308.29 -9.04 C 309.15 -8.69 310.28 -8.37 311.72 -8.02 C 313.9 -7.48 314.98 -7.21 315.82 -6.45 C 316.22 -6.08 316.44 -5.59 316.44 -5 C 316.44 -2.97 314.71 -1.62 311.93 -1.62 C 308.99 -1.62 307.53 -3 306.59 -5.62 Z" stroke-linecap="round" />
</g>
</g>
</g>
</svg>